<svg xmlns="http://www.w3.org/2000/svg" viewBox="0 0 1200 435" width="1200" height="435">
  <defs>
    <marker id="arrow" markerWidth="10" markerHeight="10" refX="8" refY="4" orient="auto">
      <path d="M0,0 L0,8 L8,4 z" fill="#666"/>
    </marker>
    <clipPath id="hdrCloud">
      <circle cx="128" cy="68" r="56"/>
      <circle cx="192" cy="100" r="54"/>
      <circle cx="188" cy="168" r="54"/>
      <circle cx="128" cy="192" r="54"/>
      <circle cx="68" cy="168" r="54"/>
      <circle cx="64" cy="100" r="54"/>
      <circle cx="128" cy="130" r="60"/>
    </clipPath>
  </defs>

  <!-- Background -->
  <rect width="1200" height="435" fill="#fafafa" rx="10"/>

  <!-- Header: Codex mascot + title -->
  <g transform="translate(400, 2) scale(0.14)">
    <rect x="0" y="0" width="256" height="256" fill="#7C3AED" clip-path="url(#hdrCloud)"/>
    <rect x="90" y="100" width="14" height="20" rx="4" fill="white"/>
    <circle cx="97" cy="112" r="3.5" fill="#4C1D95"/>
    <rect x="140" y="100" width="14" height="20" rx="4" fill="white"/>
    <circle cx="147" cy="112" r="3.5" fill="#4C1D95"/>
    <line x1="100" y1="155" x2="112" y2="168" stroke="white" stroke-width="5" stroke-linecap="round" opacity="0.85"/>
    <line x1="112" y1="168" x2="100" y2="181" stroke="white" stroke-width="5" stroke-linecap="round" opacity="0.85"/>
    <line x1="122" y1="181" x2="145" y2="181" stroke="white" stroke-width="5" stroke-linecap="round" opacity="0.85"/>
  </g>
  <text x="442" y="33" text-anchor="start" fill="#333" font-family="system-ui" font-size="18" font-weight="bold">Codex CLI Orchestration Workflow</text>

  <!-- User -->
  <circle cx="260" cy="190" r="38" fill="#E07C4C"/>
  <text x="260" y="196" text-anchor="middle" fill="white" font-family="system-ui" font-size="16" font-weight="bold">User</text>

  <!-- Arrow 1: User -> Agent -->
  <line x1="303" y1="190" x2="368" y2="190" stroke="#666" stroke-width="2.5" marker-end="url(#arrow)"/>

  <!-- Agent Box (same size as Claude Code: 240x90) -->
  <rect x="378" y="145" width="240" height="90" rx="8" fill="#2BA5A5" stroke="#1E8F8F" stroke-width="2.5"/>
  <text x="498" y="179" text-anchor="middle" fill="white" font-family="system-ui" font-size="16" font-weight="bold">Agent</text>
  <text x="498" y="207" text-anchor="middle" fill="white" font-family="system-ui" font-size="12" opacity="0.9">agents/weather-agent</text>
  <!-- Agent description -->
  <text x="498" y="265" text-anchor="middle" fill="#888" font-family="system-ui" font-size="11">Fetches temperature from</text>
  <text x="498" y="280" text-anchor="middle" fill="#888" font-family="system-ui" font-size="11">Open-Meteo API for Dubai</text>

  <!-- Arrow 2: Agent -> Skill -->
  <line x1="623" y1="190" x2="688" y2="190" stroke="#666" stroke-width="2.5" marker-end="url(#arrow)"/>
  <text x="655" y="180" text-anchor="middle" fill="#666" font-family="system-ui" font-size="11">Skill</text>

  <!-- SVG Creator Skill Box (same size as Claude Code: 280x90) -->
  <rect x="698" y="145" width="280" height="90" rx="8" fill="#9B59B6" stroke="#8E44AD" stroke-width="2.5"/>
  <text x="838" y="179" text-anchor="middle" fill="white" font-family="system-ui" font-size="16" font-weight="bold">Skill</text>
  <text x="838" y="207" text-anchor="middle" fill="white" font-family="system-ui" font-size="12" opacity="0.9">skills/weather-svg-creator</text>
  <!-- Skill description -->
  <text x="838" y="265" text-anchor="middle" fill="#888" font-family="system-ui" font-size="11">Creates SVG weather card at</text>
  <text x="838" y="280" text-anchor="middle" fill="#888" font-family="system-ui" font-size="11">orchestration-workflow/weather.svg</text>

  <!-- Arrow 3: dashed return arrow from Skill back to User -->
  <path d="M 978 190 Q 1020 190 1020 325 Q 1020 360 260 360 Q 222 360 222 255 L 222 235"
        stroke="#666" stroke-width="2.5" fill="none" stroke-dasharray="6,4" marker-end="url(#arrow)"/>

  <!-- Legend -->
  <text x="600" y="407" text-anchor="middle" fill="#888" font-family="system-ui" font-size="12">
    agents/weather-agent → skills/weather-svg-creator (skill)
  </text>
</svg>
